<svg width="59" height="59" viewBox="0 0 59 59" fill="none" xmlns="http://www.w3.org/2000/svg">
<g clip-path="url(#clip0_1_40)">
<path fill-rule="evenodd" clip-rule="evenodd" d="M13.5823 32.7715C13.3586 32.5519 13.1332 32.3323 12.9063 32.1143C10.5921 29.8961 8.29606 27.6754 6.14174 25.2965C5.61976 24.7204 4.6397 23.6027 3.65555 23.0275C2.95165 22.6161 2.22313 22.4441 1.55693 22.5293C1.13245 22.5834 0.51216 22.7973 0.200771 23.611C0.148327 23.7478 0.0860633 23.9829 0.06148 24.2829C0.0221466 24.768 0.0606417 25.6382 0.0729334 25.7587C0.245017 27.5139 0.417094 29.1922 0.73258 30.9286C1.02266 32.5265 1.22096 34.1367 1.53317 35.7322C2.00025 38.1192 2.60174 40.4169 3.47855 42.69C3.80387 43.5341 4.7536 43.9544 5.59763 43.6291C6.44084 43.3038 6.86203 42.3549 6.53671 41.5109C5.72956 39.4172 5.17972 37.3014 4.75033 35.1028C4.44058 33.5221 4.24472 31.9258 3.95709 30.3427C3.77026 29.3126 3.6375 28.3039 3.52441 27.2862L3.71207 27.4967C5.91883 29.9329 8.2682 32.2085 10.638 34.48C11.5247 35.3306 12.381 36.2058 13.2816 37.0425C13.3545 37.149 13.6913 37.6374 13.8568 37.8045C14.1321 38.0831 14.4296 38.2388 14.6885 38.3158C15.3466 38.5125 16.0144 38.4396 16.5979 37.7021C17.0346 37.1498 17.2862 36.2934 17.2673 35.2708C17.2419 33.8654 16.7085 32.0127 16.5954 31.1589C15.8792 25.7563 14.7205 20.375 14.4124 14.9257C14.3616 14.0226 13.5872 13.331 12.6842 13.3818C11.7812 13.4334 11.0887 14.2078 11.1403 15.1108C11.4525 20.6421 12.6186 26.1053 13.3455 31.5899C13.3848 31.8816 13.4782 32.297 13.5823 32.7715Z" fill="black"/>
<path fill-rule="evenodd" clip-rule="evenodd" d="M27.8991 10.3732C26.0406 10.8657 24.1789 11.2951 22.6858 12.5718C21.124 13.9083 20.33 15.8496 20.0472 18.0129C19.6867 20.7728 20.1702 23.9039 20.4701 26.1352C20.6258 27.2907 20.6921 28.9009 21.0289 30.3275C21.319 31.5542 21.8131 32.6531 22.5662 33.4226C23.7495 34.6312 25.5653 34.7533 27.4279 33.9994C29.5798 33.1284 31.7227 31.1183 32.3053 29.9465C32.7085 29.1369 32.3782 28.1519 31.5678 27.7496C30.7582 27.3464 29.774 27.6766 29.3709 28.4862C29.0013 29.2295 27.5632 30.4087 26.198 30.9618C25.8931 31.0847 25.5916 31.1765 25.3064 31.1994C25.1581 31.2117 25.0098 31.233 24.909 31.1306C24.4149 30.625 24.2412 29.8031 24.0978 28.973C23.897 27.8159 23.8412 26.6072 23.7191 25.6977C23.4504 23.7023 22.9751 20.9056 23.2972 18.4374C23.4701 17.114 23.8609 15.8807 24.8172 15.0629C25.9267 14.114 27.3558 13.9083 28.7382 13.542C29.6126 13.311 30.1346 12.4128 29.9027 11.5385C29.6716 10.6641 28.7735 10.1422 27.8991 10.3732Z" fill="black"/>
<path fill-rule="evenodd" clip-rule="evenodd" d="M27.7745 19.0088C26.3347 19.7931 24.7958 20.5993 23.2528 21.1533C22.4014 21.4589 21.958 22.3981 22.2629 23.2495C22.5685 24.1009 23.5076 24.5442 24.359 24.2385C26.0585 23.6288 27.7572 22.7512 29.342 21.8884C30.1361 21.4557 30.4303 20.4592 29.9976 19.6652C29.5649 18.8703 28.5693 18.577 27.7745 19.0088Z" fill="black"/>
<path fill-rule="evenodd" clip-rule="evenodd" d="M47.5683 19.8814C46.3719 18.4343 45.1075 17.0101 43.7718 15.7088C43.6628 15.6031 42.3157 14.4936 41.5151 14.0789C40.9751 13.7995 40.4965 13.7487 40.2162 13.7757C39.4009 13.8544 38.9035 14.2961 38.6994 15.0516C38.5044 15.776 38.434 16.5307 38.434 17.301C37.222 15.0287 36.1133 12.6916 35.4397 10.2308C35.384 10.0276 35.3389 9.93254 35.3315 9.91533C35.1045 9.41383 34.7825 9.24336 34.6678 9.17616C34.104 8.84511 33.596 8.90087 33.1674 9.09344C33.1149 9.11638 31.9595 9.62935 32.2357 10.9396C32.2578 11.0453 32.4463 11.7984 32.5012 12.0926C32.5495 12.3482 32.6544 12.5785 32.8011 12.7735C33.9303 16.0169 35.6577 19.0808 37.3154 22.0726C37.6735 22.7191 37.9529 23.3853 38.1373 24.1007C38.1914 24.3097 38.2135 24.7825 38.2611 25.0144C38.3422 25.4069 38.5028 25.6699 38.6052 25.8043C39.1378 26.5041 39.7942 26.5754 40.3998 26.396C40.6587 26.3198 41.1774 26.1452 41.4929 25.3938C42.2026 23.7057 42.1223 21.8415 41.9166 19.9633C41.856 19.4077 41.7806 18.8522 41.7347 18.3031C43.1925 19.7519 44.5568 21.3498 45.8393 22.9469C45.9802 23.1223 47.4077 24.7186 47.7871 24.9562C48.736 25.5528 49.4727 25.1045 49.7882 24.8374C50.2692 24.4293 50.6478 23.7287 50.8018 22.8363C51.0001 21.6817 50.8436 20.0928 50.828 19.4536C50.724 15.1515 50.5683 10.6545 49.6021 6.454C49.3997 5.57228 48.5197 5.02158 47.6379 5.22399C46.7562 5.42639 46.2056 6.30732 46.408 7.18822C47.3249 11.1773 47.4519 15.449 47.5511 19.5331C47.5535 19.6274 47.5601 19.7454 47.5683 19.8814Z" fill="black"/>
<path fill-rule="evenodd" clip-rule="evenodd" d="M54.1238 5.36299C54.7179 8.23514 55.3128 11.081 55.7013 14.0343C55.8193 14.9316 56.6428 15.5642 57.5401 15.4462C58.4365 15.3282 59.0692 14.5047 58.9512 13.6074C58.4038 9.44216 57.4565 5.48755 56.6633 1.37885C56.3576 -0.209228 54.8482 0.012864 54.7556 0.0292529C54.5516 0.0653084 53.4396 0.302125 53.4027 1.60422C53.4003 1.68371 53.4535 2.24581 53.4625 2.46378C53.4822 2.96282 53.4723 3.45041 53.4469 3.95027C53.4174 4.52634 53.6887 5.04832 54.1238 5.36299Z" fill="black"/>
<path fill-rule="evenodd" clip-rule="evenodd" d="M58.3595 22.3006C58.5258 21.7941 58.4414 21.2156 58.0842 20.7674C57.5196 20.0602 56.4879 19.9447 55.7807 20.5093C55.1276 21.0304 55.0055 21.6655 55.0932 22.4424C55.1948 23.3413 56.0077 23.9886 56.9066 23.8862C57.7285 23.7936 58.3398 23.1053 58.3595 22.3006Z" fill="black"/>
<path fill-rule="evenodd" clip-rule="evenodd" d="M27.4185 53.9154C27.2513 53.5614 27.117 53.282 27.085 53.2221C25.5625 50.3746 23.9105 47.5647 22.1118 44.8827C21.6078 44.1312 20.5893 43.9305 19.8378 44.4344C19.0864 44.9384 18.8857 45.957 19.3896 46.7084C21.1277 49.2995 22.7231 52.016 24.1948 54.7677C24.3071 54.9774 25.0552 56.8417 25.5895 57.6193C26.0738 58.3232 26.6818 58.5748 27.0301 58.6264C27.5832 58.7083 28.4486 58.51 29.1508 57.5726C30.0678 56.3492 31.2568 53.0804 31.4526 52.5379C31.8115 51.5399 32.1155 50.4926 32.3974 49.474C32.9317 47.5418 33.239 45.5751 33.5135 43.5937C33.6381 42.6972 33.0112 41.8696 32.1148 41.745C31.2191 41.6213 30.3906 42.2482 30.2669 43.1438C30.0121 44.9819 29.7343 46.8075 29.2385 48.5997C28.9779 49.5396 28.6993 50.5074 28.3682 51.4284C28.2683 51.7046 27.8799 52.8452 27.4185 53.9154Z" fill="black"/>
</g>
<defs>
<clipPath id="clip0_1_40">
<rect width="58.96" height="58.96" fill="white" transform="scale(1.00068)"/>
</clipPath>
</defs>
</svg>
