<svg width="98" height="94" viewBox="0 0 98 94" fill="none" xmlns="http://www.w3.org/2000/svg">
<path fill-rule="evenodd" clip-rule="evenodd" d="M41.9798 23.0135C33.2619 25.313 27.5585 31.1767 21.9781 38.4032C21.0361 39.6236 18.8441 42.6855 17.8448 45.524C17.1376 47.5309 17.0513 49.43 18.2381 50.5802C19.2745 51.5862 20.7372 51.606 22.328 51.0306C25.7826 49.7816 29.877 45.7234 31.022 44.3813C36.1774 38.3338 40.0846 31.1371 42.4978 23.5604C43.0354 23.4261 43.5862 23.3048 44.1493 23.1975C45.8461 22.8769 47.8996 22.668 49.8119 22.9379C51.6705 23.1997 53.399 23.9133 54.5018 25.4512C56.8037 28.6595 56.3315 33.725 54.6566 39.0397C54.2925 40.1983 53.8694 41.367 53.4033 42.5334C52.5981 42.7496 51.7603 43.0624 50.902 43.456C44.242 46.5093 36.3274 54.2971 34.2799 56.9452C33.3681 58.1242 31.6613 60.2708 31.0163 62.3449C30.5548 63.8278 30.6274 65.2738 31.7757 66.3617C32.798 67.3315 34.208 67.3218 35.7354 66.7214C39.0332 65.4247 42.9091 61.3506 44.085 59.952C46.76 56.7731 51.0649 50.0289 53.893 43.0768C55.5225 42.683 56.9792 42.7443 58.1156 43.4938C59.6966 44.5356 60.1193 46.6922 59.9328 49.2813C59.8763 50.0621 59.7641 50.8817 59.605 51.7217C59.5448 51.7617 59.4864 51.8016 59.4262 51.8416C54.6162 55.0837 49.9573 60.4192 48.113 62.9493C47.2803 64.0905 45.9158 66.2623 45.4964 68.2772C45.1982 69.7151 45.3795 71.0726 46.4572 71.9878C47.5639 72.9279 48.8845 72.6136 50.1337 71.7389C51.8367 70.5443 53.4064 68.3131 53.9838 67.4803C55.6116 65.1365 58.9947 58.127 60.1962 52.1222C61.6241 51.1966 63.0594 50.4708 64.4295 50.0866C65.8751 49.6789 67.2464 49.6516 68.4475 50.1939C71.4089 51.534 71.8909 55.0043 71.2432 58.9262C71.046 60.1205 70.7421 61.3565 70.3626 62.5918C69.069 62.6477 67.6516 63.1054 66.2216 63.8391C62.8527 65.5692 59.3989 68.8159 57.3688 71.6603C56.668 72.6414 55.5489 74.4048 55.2486 76.0395C55.0309 77.2214 55.2339 78.3368 56.2172 79.1072C57.4113 80.0444 58.7875 79.8778 60.1155 79.1864C61.9619 78.2232 63.7146 76.2315 64.6502 75.1887C66.486 73.1403 69.2372 68.2403 70.8458 63.242C71.3745 63.266 71.8745 63.3742 72.3385 63.5812C74.0859 64.3577 75.2505 66.5099 75.4304 70.6511C75.5166 72.6563 75.3933 74.6653 74.892 76.61C74.1705 79.4133 72.9252 81.9014 71.4548 84.373C71.3628 84.5292 71.4133 84.7314 71.5698 84.8238C71.7255 84.9173 71.9284 84.8664 72.0205 84.7102C73.523 82.1848 74.7917 79.639 75.5288 76.7749C76.0457 74.7675 76.176 72.6936 76.0875 70.6242C75.8916 66.1169 74.5062 63.8259 72.6051 62.98C72.119 62.7645 71.5964 62.6422 71.0459 62.6012C71.4093 61.3989 71.7002 60.1983 71.8915 59.0352C72.5953 54.7743 71.9337 51.0502 68.7171 49.5953C66.3409 48.521 63.3469 49.416 60.3569 51.2439C60.4644 50.5878 60.5442 49.9478 60.5886 49.331C60.7956 46.4607 60.229 44.0997 58.4777 42.945C57.3109 42.1764 55.8338 42.0337 54.1816 42.3527C54.5878 41.3131 54.9594 40.2714 55.284 39.238C57.0295 33.6969 57.4361 28.4146 55.0356 25.0684C54.0638 23.7134 52.6588 22.9276 51.0861 22.52C48.7939 21.9286 46.1429 22.1514 44.0254 22.5526C43.5854 22.6356 43.1516 22.7274 42.726 22.8279C42.9842 21.9795 43.2252 21.1267 43.4454 20.27C43.9918 18.1513 44.5612 15.5824 44.463 13.1558C44.395 11.4979 44.0171 9.90653 43.126 8.55662C41.8518 6.6216 39.9497 5.92869 37.909 5.91011C35.9344 5.89113 33.8287 6.51144 32.0716 7.21234C24.3806 10.28 17.9533 16.1513 15.3147 24.1657C15.2583 24.3369 15.3523 24.5227 15.5247 24.5804C15.6961 24.6372 15.8827 24.5447 15.939 24.3717C18.516 16.5447 24.8046 10.8191 32.3167 7.82289C33.9987 7.15103 36.0137 6.54979 37.9051 6.56672C39.7284 6.58418 41.4378 7.18647 42.5773 8.91642C43.6117 10.4857 43.8854 12.4094 43.8022 14.3595C43.7171 16.3563 43.2538 18.3819 42.8086 20.1051C42.5567 21.0799 42.2802 22.0509 41.9798 23.0135ZM70.1523 63.2567C69.0129 63.3511 67.7751 63.7812 66.5235 64.4239C63.2423 66.1081 59.8817 69.2722 57.9045 72.0427C57.2449 72.9675 56.1768 74.6207 55.8949 76.159C55.7237 77.0922 55.8465 77.9833 56.622 78.5916C57.5993 79.357 58.7238 79.1686 59.8109 78.6027C61.5857 77.6768 63.2607 75.7516 64.1603 74.7488C65.9318 72.7715 68.5698 68.0787 70.1523 63.2567ZM59.4145 52.647C54.8094 55.8623 50.4139 60.9102 48.6435 63.3377C47.8504 64.4246 46.5391 66.4916 46.1403 68.4136C45.8931 69.5996 45.9912 70.7322 46.8819 71.4874C47.7497 72.2248 48.7756 71.8864 49.7544 71.2002C51.3904 70.0536 52.889 67.9032 53.4439 67.1048C54.9855 64.8841 58.1359 58.3977 59.4145 52.647ZM53.0876 43.3032C52.4691 43.4996 51.8301 43.7544 51.1778 44.0531C44.615 47.0616 36.8175 54.7389 34.8003 57.3474C33.9216 58.4837 32.2666 60.5435 31.6445 62.5421C31.26 63.7731 31.2738 64.9821 32.2275 65.8862C32.7739 66.4039 33.4625 66.5509 34.2232 66.4536C35.0485 66.3496 35.9514 65.9647 36.8649 65.4317C39.6954 63.78 42.6007 60.6945 43.5815 59.528C46.167 56.4557 50.2916 50.0133 53.0876 43.3032ZM41.7425 23.7606C33.4003 26.0949 27.898 31.8127 22.4985 38.8054C21.5811 39.995 19.4398 42.9775 18.4645 45.7433C18.1503 46.637 17.9562 47.5058 17.9775 48.2807C17.9981 48.9997 18.2041 49.6338 18.6949 50.1091C19.2565 50.6535 19.9745 50.8187 20.7727 50.7363C21.6346 50.6463 22.5833 50.2747 23.5433 49.7521C26.5119 48.1356 29.5672 45.0731 30.521 43.9543C35.5288 38.0794 39.3465 31.1068 41.7425 23.7606Z" fill="black"/>
</svg>
