<svg width="132" height="81" viewBox="0 0 132 81" fill="none" xmlns="http://www.w3.org/2000/svg">
<path fill-rule="evenodd" clip-rule="evenodd" d="M115.19 80.4916C120.403 78.151 125.581 75.8814 130.723 73.3901C131.832 72.8581 132.292 71.5373 131.761 70.4379C131.229 69.3297 129.899 68.8685 128.799 69.4004C123.684 71.874 118.551 74.1259 113.373 76.4488C112.256 76.9541 111.759 78.2663 112.256 79.3745C112.761 80.4916 114.073 80.997 115.19 80.4916Z" fill="black"/>
<path fill-rule="evenodd" clip-rule="evenodd" d="M76.8998 52.8044C84.4712 36.4115 91.2095 19.6461 98.4263 3.10242C98.914 1.97646 98.3997 0.673144 97.2826 0.185525C96.1566 -0.302098 94.8535 0.203288 94.357 1.32925C87.158 17.8463 80.4377 34.585 72.8751 50.9425C72.3609 52.0596 72.8483 53.3718 73.9565 53.886C75.0736 54.4002 76.3856 53.9126 76.8998 52.8044Z" fill="black"/>
<path fill-rule="evenodd" clip-rule="evenodd" d="M11.9304 48.5514C9.50999 33.4795 6.66407 18.4519 4.41215 3.35333C4.22597 2.14758 3.10014 1.31432 1.89439 1.49163C0.679767 1.66895 -0.153501 2.80364 0.0238156 4.0094C2.28461 19.1257 5.13054 34.171 7.55979 49.2607C7.75483 50.4665 8.88954 51.291 10.0953 51.096C11.3099 50.901 12.1254 49.766 11.9304 48.5514Z" fill="black"/>
</svg>
